<svg width="15" height="15" viewBox="0 0 15 15" fill="none" xmlns="http://www.w3.org/2000/svg">
<path d="M14.8131 15.0202C15.0083 15.2155 15.3249 15.2155 15.5202 15.0202C15.7154 14.825 15.7154 14.5084 15.5202 14.3131L14.8131 15.0202ZM12.1666 6.33334C12.1666 9.27886 9.77881 11.6667 6.83329 11.6667V12.6667C10.3311 12.6667 13.1666 9.83114 13.1666 6.33334H12.1666ZM6.83329 11.6667C3.88777 11.6667 1.49996 9.27886 1.49996 6.33334H0.499959C0.499959 9.83114 3.33549 12.6667 6.83329 12.6667V11.6667ZM1.49996 6.33334C1.49996 3.38782 3.88777 1 6.83329 1V0C3.33549 0 0.499959 2.83553 0.499959 6.33334H1.49996ZM6.83329 1C9.77881 1 12.1666 3.38782 12.1666 6.33334H13.1666C13.1666 2.83553 10.3311 0 6.83329 0V1ZM10.6464 10.8536L14.8131 15.0202L15.5202 14.3131L11.3535 10.1465L10.6464 10.8536Z" fill="#666666"/>
</svg>
